<?xml version="1.0" standalone="no"?>
<!DOCTYPE svg PUBLIC "-//W3C//DTD SVG 20010904//EN"
 "http://www.w3.org/TR/2001/REC-SVG-20010904/DTD/svg10.dtd">
<svg version="1.0" xmlns="http://www.w3.org/2000/svg"
 width="80.000000pt" height="80.000000pt" viewBox="0 0 1200.000000 1200.000000"
 preserveAspectRatio="xMidYMid meet">

<g transform="translate(0.000000,1200.000000) scale(0.100000,-0.100000)"
fill="#000000" stroke="none">
<path d="M3040 6000 l0 -4250 2960 0 2960 0 0 4250 0 4250 -2960 0 -2960 0 0
-4250z m5790 0 l0 -4120 -2830 0 -2830 0 0 4120 0 4120 2830 0 2830 0 0 -4120z"/>
<path d="M5975 8229 c-25 -108 -325 -1473 -325 -1483 0 -14 260 -81 270 -69 4
4 80 337 169 738 89 402 164 739 167 751 5 19 -4 23 -113 47 -65 15 -128 30
-140 33 -17 5 -23 1 -28 -17z"/>
<path d="M4940 7845 l-415 -252 0 -128 0 -128 415 -253 c228 -139 417 -251
419 -249 2 3 34 57 71 122 51 88 65 121 57 129 -7 6 -148 93 -315 194 -166
101 -299 186 -295 190 4 4 145 90 313 190 168 101 306 184 308 185 2 2 -136
248 -141 251 -1 1 -189 -112 -417 -251z"/>
<path d="M6571 7972 c-39 -69 -70 -126 -69 -127 2 -1 140 -84 308 -185 168
-101 308 -186 313 -190 4 -3 -132 -91 -303 -195 -171 -104 -313 -191 -314
-194 -6 -10 134 -246 143 -244 5 1 194 115 420 254 l411 251 0 123 0 123 -267
163 c-148 89 -336 204 -419 255 l-151 92 -72 -126z"/>
<path d="M5172 5204 c-41 -28 -16 -94 36 -94 47 0 69 61 34 93 -23 21 -41 21
-70 1z"/>
<path d="M5170 4808 c0 -241 -7 -286 -48 -328 -25 -25 -26 -28 -12 -53 19 -35
29 -34 68 6 58 60 62 81 62 352 l0 245 -35 0 -35 0 0 -222z"/>
<path d="M5428 5017 c-26 -12 -26 -13 -13 -44 13 -30 16 -32 40 -23 46 18 82
12 104 -16 12 -15 21 -37 21 -49 0 -19 -8 -24 -59 -34 -97 -19 -141 -69 -141
-159 0 -61 30 -109 84 -136 35 -17 44 -18 80 -7 49 15 66 16 89 6 16 -7 17 6
17 184 0 208 -4 229 -56 270 -31 24 -120 28 -166 8z m152 -300 c0 -80 -9 -97
-51 -97 -41 0 -71 30 -72 72 -1 54 41 96 101 97 21 1 22 -3 22 -72z"/>
<path d="M5844 5021 c-41 -18 -64 -60 -64 -118 l0 -55 80 -78 c84 -81 94 -104
60 -135 -19 -17 -73 -18 -111 -1 -13 5 -19 -1 -28 -25 -6 -17 -9 -35 -6 -39 3
-4 27 -13 54 -20 91 -22 171 23 186 104 10 51 -17 101 -95 175 -38 37 -70 75
-70 83 0 42 55 58 111 34 13 -6 20 1 29 29 7 20 9 39 6 43 -11 10 -129 13
-152 3z"/>
<path d="M6185 4999 c-57 -51 -78 -107 -78 -210 0 -75 4 -95 27 -144 46 -92
120 -124 201 -85 70 34 98 90 103 206 5 112 -13 175 -63 224 -30 29 -43 34
-93 38 -55 4 -61 2 -97 -29z m119 -50 c55 -26 81 -183 43 -271 -27 -63 -98
-76 -132 -24 -45 69 -39 227 10 280 26 29 42 32 79 15z"/>
<path d="M6550 4791 l0 -241 40 0 40 0 0 184 c0 180 1 185 22 200 33 23 91 20
114 -5 17 -19 19 -41 22 -200 l3 -179 35 0 34 0 0 190 c0 207 -5 229 -56 269
-36 28 -104 28 -154 0 l-38 -22 -31 22 -31 22 0 -240z"/>
<path d="M4920 3655 l0 -355 40 0 40 0 0 184 c0 180 1 185 22 200 33 23 91 20
114 -5 17 -19 19 -41 22 -200 l3 -179 35 0 34 0 0 190 c0 207 -5 229 -56 269
-32 25 -101 28 -144 6 l-30 -16 0 131 0 130 -40 0 -40 0 0 -355z"/>
<path d="M5750 3655 l0 -355 35 0 35 0 0 355 0 355 -35 0 -35 0 0 -355z"/>
<path d="M7010 3892 l0 -118 -57 4 c-48 3 -64 0 -93 -20 -69 -46 -105 -181
-81 -300 27 -130 130 -200 221 -150 31 17 37 18 57 4 l23 -14 0 356 0 356 -35
0 -35 0 0 -118z m-19 -192 c17 -10 19 -23 19 -158 0 -102 -4 -152 -12 -160
-19 -19 -85 -15 -107 7 -38 38 -54 162 -31 240 19 69 77 100 131 71z"/>
<path d="M5323 3766 c36 -94 137 -454 133 -472 -4 -13 -20 -39 -37 -59 -30
-34 -31 -36 -15 -60 9 -14 21 -25 25 -25 23 0 80 85 99 148 22 68 132 468 132
477 0 3 -18 5 -40 5 -35 0 -40 -3 -47 -27 -3 -16 -23 -93 -43 -172 l-36 -144
-45 169 -45 169 -43 3 c-35 3 -43 0 -38 -12z"/>
<path d="M5983 3770 c-27 -11 -26 -8 -12 -49 9 -24 15 -30 28 -25 62 26 107
15 127 -31 8 -19 14 -38 14 -43 0 -4 -27 -14 -60 -20 -74 -16 -125 -57 -140
-112 -22 -82 24 -168 102 -192 31 -9 45 -8 79 5 29 11 47 13 60 7 10 -6 20
-10 23 -10 3 0 6 83 6 185 0 209 -7 241 -62 275 -35 21 -123 27 -165 10z m157
-305 c0 -65 -3 -76 -20 -85 -32 -17 -71 -8 -93 22 -30 41 -15 97 33 120 19 10
45 18 58 18 21 0 22 -4 22 -75z"/>
<path d="M6350 3541 l0 -241 35 0 35 0 0 179 0 180 26 20 c17 13 41 21 65 21
66 0 73 -23 77 -227 l4 -173 35 0 35 0 -4 198 c-3 174 -5 200 -22 225 -39 58
-120 74 -189 37 l-38 -21 -30 21 -29 21 0 -240z"/>
</g>
</svg>
