<?xml version="1.0"?>
<svg version="1.1" xmlns="http://www.w3.org/2000/svg" width="400" height="200" style="border: dashed 2px #aaa"><path fill="#e33b70" d="M34.152,103.444q0,0.224-0.574,0.224t-1.148-0.574t-0.574-1.4t0.504-1.498q1.064-1.456,3.556-2.072q1.792-0.448,3.584-0.448l0.224,0q0.252,0,1.372,0.084q-0.056-0.364,0.294-0.686t0.798-0.322q0.84,0,0.812,1.204q3.024,0.532,3.192,1.624q0.028,0.252,0.028,0.42q0,0.56-0.322,0.56t-0.21-0.672q-0.7-1.036-2.772-1.456q-0.504,2.268-5.264,9.856q-3.164,4.984-7.364,8.344q-4.816,3.808-9.072,3.808q-2.604,0-3.864-1.316t-1.26-2.926t0.616-2.758q1.484-2.856,4.284-4.452q2.072-1.204,3.836-1.204q1.904,0,2.982,0.924t1.078,2.324q0,1.512-1.12,2.744q-0.7,0.784-1.12,0.784q-0.112,0-0.112-0.098t0.084-0.266q1.008-1.484,1.008-2.758t-0.7-2.086q-0.812-0.868-2.198-0.868t-3.094,1.12q-2.1,1.372-3.444,4.116q-0.7,1.372-0.7,2.842t1.092,2.38t2.94,0.91q7.112,0,14.868-12.488q4.648-7.448,4.76-9.128q-1.68-0.084-1.764-0.084q-1.316,0-3.374,0.728t-2.674,1.792q-0.252,0.42-0.252,0.924t0.532,1.12t0.532,0.728z M48.54876,108.428l0.392-0.084q0.308,0,0.588,0.252t0.28,0.392t-1.736,2.702t-1.736,3.57q0,0.084,0.028,0.168q0.14,0.644,0.616,0.644q1.456,0,5.32-4.816q0.084-0.112,0.196-0.112t0.112,0.21t-0.252,0.546q-3.584,4.788-5.46,4.788q-0.252,0-0.476-0.084q-1.232-0.476-1.232-1.848q0-0.476,0.112-0.952l-1.736,1.68q-1.652,1.456-2.394,1.456t-1.414-0.476q-0.756-0.56-0.756-1.484q0-2.044,2.856-4.886t5.236-2.842q0.924,0,1.232,0.644q0.084,0.224,0.14,0.378t0.084,0.154z M40.17676,115.316q0,1.008,0.7,1.008q1.624,0,4.424-3.556l2.968-4.088q-0.224-0.392-0.728-0.392q-1.708,0-4.536,2.646t-2.828,4.382z M57.17752,116.38q-0.812,0.476-2.002,0.476t-1.82-0.784t-1.078-2.492q-0.504,0.504-0.7,0.504q-0.14,0-0.14-0.196t0.14-0.336q0.924-1.148,3.136-3.304l3.528-3.304q1.512-1.428,1.792-1.428q0.896,0,0.896,0.672q0,0.336-0.266,0.658t-0.392,0.504t-0.266,0.35q-0.504,0.868-1.022,3.584t-0.798,3.78q2.324-0.028,4.788-3.024q0.28-0.28,0.42-0.28t0.14,0.182t-0.252,0.49q-1.624,1.904-3.024,2.66q-0.84,0.42-2.184,0.7z M53.39752,113.272q0,0.952,0.63,1.554t1.414,0.602t1.204-0.308q0.56-0.308,1.106-2.576t0.658-4.004l0.112-0.952q-1.54,1.148-3.29,2.968t-1.806,2.408q-0.028,0.168-0.028,0.308z M70.62228,110.864q0,0.98-1.876,3.276q-2.212,2.716-3.78,2.716l-0.448,0q-0.728,0-1.148-0.756q-0.336-0.532-0.336-1.176q0-1.68,2.45-4.718t3.962-3.038q1.428,0,1.428,1.512q0,0.392-0.14,1.008q0.028,0.084,0.532,0.084t1.54-0.532q-0.028,0.476-2.212,1.372q0.028,0.112,0.028,0.252z M68.80228,109.408q-0.952,0-2.702,2.24t-1.75,3.304t0.672,1.064q1.204,0,3.052-2.184t1.848-3.136q-0.448-0.252-1.12-1.288z M76.92704,107.952q0.756,0,0.756,0.588q0,0.168-0.084,0.336q-2.52,3.5-3.024,5.292q6.524-6.524,7.924-6.524q0.14-0.028,0.252-0.028q0.784,0,0.784,0.7q0,0.14-0.056,0.28t-1.12,1.512q-1.232,1.456-2.086,2.8t-0.854,2.24t0.392,0.896q1.232,0,4.284-3.388q0.056-0.056,0.196-0.252q0.42-0.504,0.504-0.504t0.084,0.28t-0.392,0.728q-3.472,3.948-4.928,3.948q-1.372,0-1.372-1.512t1.12-3.472l1.792-2.912q-1.904,1.4-3.388,3.066t-2.702,3.234t-1.414,1.568q-0.42,0-0.658-0.35t-0.238-0.868t0.364-1.386t0.924-2.1l-1.68,1.764q-0.616,0.616-0.77,0.616t-0.154-0.182t0.224-0.406q1.036-1.036,1.792-1.988q0.728-0.952,2.996-3.64q0.252-0.336,0.532-0.336z M99.64456,118.088q0-0.784,3.22-6.076q-2.296,0-3.052,0.196q-1.26,0.308-1.876,1.26q-0.224,0.308-0.378,0.336t-0.154-0.126t0.112-0.266q1.064-1.428,2.1-1.96t3.276-0.532l0.672,0q1.708-2.604,4.788-7.728q1.148-2.156,1.148-3.5q0-2.156-2.632-2.184l-0.308,0q-3.584,0-6.524,1.792t-4.648,4.452t-1.708,4.788q0,2.604,2.436,2.604q1.932,0,3.304-1.708t1.372-3.248q0-0.868-0.448-1.428q-0.056-0.056-0.056-0.14q0-0.196,0.224-0.196q0.112,0,0.168,0.084q0.56,0.728,0.56,1.736q0,1.708-1.4,3.486t-2.94,1.974q-0.476,0.084-0.924,0.084q-1.792,0-2.772-1.148q-0.952-1.036-0.952-2.8q0-0.728,0.168-1.484q0.84-3.78,4.858-6.608t9.03-2.828q1.932,0,3.318,0.826t1.386,2.31t-1.036,3.136l-5.068,7.784q0.896,0.028,3.206,0.266t3.472,0.238t1.554-0.028l1.064-1.764q2.716-4.564,6.286-8.526t6.23-4.914q0.084-0.028,0.168-0.028q0.196,0,0.196,0.224q0,0.084-0.084,0.14q-1.792,1.008-5.138,4.886t-5.782,7.966l-1.092,1.848q1.288-0.168,1.848-0.644q0.112-0.084,0.196,0.098t-0.028,0.266q-0.84,0.644-2.38,0.924q-1.96,3.64-1.96,5.124q0,0.952,0.812,0.952q0.56,0,1.302-0.378t0.994-0.644t0.308-0.266t0.028,0.182t-0.112,0.294q-0.476,0.448-1.428,0.952t-1.54,0.504t-0.868-0.196q-0.896-0.588-0.896-2.044t1.484-4.256q-1.036,0.084-1.932,0.084q-0.308,0-6.58-0.196q-1.988,3.136-3.192,5.712q-0.364,0.756-0.882,0.756t-0.518-0.42z M118.01732,120.048q1.344,1.68,2.324,1.68q1.596,0,3.444-2.548q1.344-1.876,2.632-4.732l1.064-2.576l-4.116,3.22q-1.904,1.484-3.052,1.484q-0.616,0-0.98-0.42t-0.364-0.952q0-1.204,2.072-3.962t3.024-2.758t0.952,0.644q0,0.252-2.478,2.898t-2.478,3.57q0,0.364,0.476,0.364q0.896,0,3.598-2.1t4.074-3.472q0.308-0.364,0.868-1.092q0.532-0.616,1.176-0.616t0.644,0.616q0,0.112-1.26,1.988t-1.316,1.988q-0.868,1.68-2.66,4.9q-2.716,4.368-5.432,4.368q-0.896,0-1.568-0.77t-0.644-1.722z M133.19808,116.24q0.924,0,2.38-0.98t2.828-2.66q0.336-0.448,0.532-0.448t0.196,0.168t-1.148,1.456q-2.8,3.08-4.676,3.08q-0.924,0-1.568-0.434t-0.644-1.344t0.476-2.114q0.812-1.904,2.604-4.788q3.276-5.32,4.648-5.32q0.28,0,0.574,0.21t0.322,0.462q-0.644,0.868-2.478,3.332t-2.534,3.542t-1.05,1.61t-0.518,0.826t-0.392,0.77q-0.476,0.952-0.476,1.792t0.924,0.84z M148.51884,108.428l0.392-0.084q0.308,0,0.588,0.252t0.28,0.392t-1.736,2.702t-1.736,3.57q0,0.084,0.028,0.168q0.14,0.644,0.616,0.644q1.456,0,5.32-4.816q0.084-0.112,0.196-0.112t0.112,0.21t-0.252,0.546q-3.584,4.788-5.46,4.788q-0.252,0-0.476-0.084q-1.232-0.476-1.232-1.848q0-0.476,0.112-0.952l-1.736,1.68q-1.652,1.456-2.394,1.456t-1.414-0.476q-0.756-0.56-0.756-1.484q0-2.044,2.856-4.886t5.236-2.842q0.924,0,1.232,0.644q0.084,0.224,0.14,0.378t0.084,0.154z M140.14684,115.316q0,1.008,0.7,1.008q1.624,0,4.424-3.556l2.968-4.088q-0.224-0.392-0.728-0.392q-1.708,0-4.536,2.646t-2.828,4.382z M156.5036,107.952q0.756,0,0.756,0.588q0,0.168-0.084,0.336q-2.52,3.5-3.024,5.292q6.524-6.524,7.924-6.524q0.14-0.028,0.252-0.028q0.784,0,0.784,0.7q0,0.14-0.056,0.28t-1.12,1.512q-1.232,1.456-2.086,2.8t-0.854,2.24t0.392,0.896q1.232,0,4.284-3.388q0.056-0.056,0.196-0.252q0.42-0.504,0.504-0.504t0.084,0.28t-0.392,0.728q-3.472,3.948-4.928,3.948q-1.372,0-1.372-1.512t1.12-3.472l1.792-2.912q-1.904,1.4-3.388,3.066t-2.702,3.234t-1.414,1.568q-0.42,0-0.658-0.35t-0.238-0.868t0.364-1.386t0.924-2.1l-1.68,1.764q-0.616,0.616-0.77,0.616t-0.154-0.182t0.224-0.406q1.036-1.036,1.792-1.988q0.728-0.952,2.996-3.64q0.252-0.336,0.532-0.336z M173.70036,108.316q3.136-5.096,4.368-5.096q0.196,0,0.546,0.126t0.35,0.378q0,0.14-0.14,0.364q-2.24,2.744-3.332,4.116q-3.304,4.172-3.64,5.992q-0.084,0.392-0.084,0.784q0,1.26,1.036,1.26q2.072,0,5.404-3.836q0.28-0.28,0.476-0.322t0.196,0.098t-0.168,0.336q-3.248,3.892-5.768,4.34q-0.14,0.028-0.392,0.028q-0.868,0-1.302-0.602t-0.434-1.302q0-0.784,0.308-1.736l-2.268,2.268q-1.54,1.428-2.422,1.428t-1.47-0.476q-0.7-0.532-0.7-1.484q0-2.044,2.856-4.886t5.236-2.842q0.784,0,1.092,0.42q0.112,0.14,0.252,0.644z M165.44036,115.316q0,1.008,0.7,1.008q1.204,0,4.004-3.304q0.504-0.588,3.36-4.396q-0.196-0.336-0.672-0.336q-1.736,0-4.564,2.646t-2.828,4.382z"/><path fill="#" d="M184.229510625,103.2568359375q0-1.2939453125,0.37841796875-2.421875t1.09130859375-1.9775390625l1.220703125,0q-0.6884765625,0.9423828125-1.0400390625,2.0703125t-0.3515625,2.3193359375q0,1.1962890625,0.35888671875,2.31201171875t1.02294921875,2.01904296875l-1.2109375,0q-0.7177734375-0.830078125-1.09375-1.9384765625t-0.3759765625-2.3828125z M194.72643445312,102.3583984375q0,1.7626953125-1.00341796875,2.7001953125t-2.89794921875,0.9375l-2.021484375,0l0-7.138671875l2.2412109375,0q1.748046875,0,2.71484375,0.9228515625t0.966796875,2.578125z M193.15416882812,102.3974609375q0-2.2998046875-2.03125-2.2998046875l-0.8056640625,0l0,4.6484375l0.6494140625,0q2.1875,0,2.1875-2.3486328125z M201.00460828125,105.99609375l-4.111328125,0l0-7.138671875l4.111328125,0l0,1.240234375l-2.59765625,0l0,1.5673828125l2.4169921875,0l0,1.240234375l-2.4169921875,0l0,1.8408203125l2.59765625,0l0,1.25z M207.25348523437,98.857421875l1.5283203125,0l-2.4267578125,7.138671875l-1.650390625,0l-2.421875-7.138671875l1.5283203125,0l1.3427734375,4.248046875q0.1123046875,0.3759765625,0.23193359375,0.87646484375t0.14892578125,0.69580078125q0.0537109375-0.44921875,0.3662109375-1.572265625z M212.4574403125,103.2568359375q0,1.2841796875-0.37841796875,2.392578125t-1.09130859375,1.9287109375l-1.2109375,0q0.6591796875-0.8984375,1.0205078125-2.01416015625t0.361328125-2.31689453125q0-1.19140625-0.3515625-2.3193359375t-1.0400390625-2.0703125l1.220703125,0q0.7177734375,0.8544921875,1.09375,1.98486328125t0.3759765625,2.41455078125z"/></svg>
