<?xml version="1.0" encoding="utf-8"?>
<!-- Generator: Adobe Illustrator 25.2.0, SVG Export Plug-In . SVG Version: 6.00 Build 0)  -->
<svg version="1.1" id="Layer_1" xmlns="http://www.w3.org/2000/svg" xmlns:xlink="http://www.w3.org/1999/xlink" x="0px" y="0px"
	 viewBox="0 0 47 15" style="enable-background:new 0 0 47 15;" xml:space="preserve">
<style type="text/css">
	.st0{clip-path:url(#SVGID_1_);}
	.st1{fill:url(#SVGID_2_);}
	.st2{fill:url(#SVGID_3_);}
	.st3{fill:url(#SVGID_4_);}
	.st4{fill:#FFFFFF;}
	.st5{fill:#D4B830;}
	.st6{opacity:0.986;fill:#EBEBEB;fill-opacity:0;enable-background:new    ;}
	.st7{opacity:0.986;fill:#EBEBEB;fill-opacity:0.9216;enable-background:new    ;}
	.st8{fill:#FDD83C;}
	.st9{fill-rule:evenodd;clip-rule:evenodd;fill:#181616;}
</style>
<g>
	<defs>
		<path id="SVGID_6_" d="M11.7,3.8L7.2,1.2c-0.3-0.2-0.7-0.2-1,0L1.7,3.8C1.4,4,1.2,4.3,1.2,4.6v5.2c0,0.4,0.2,0.6,0.5,0.8l4.5,2.6
			c0.3,0.2,0.7,0.2,1,0l4.5-2.6c0.3-0.2,0.5-0.5,0.5-0.8V4.6C12.2,4.3,12,4,11.7,3.8z"/>
	</defs>
	<clipPath id="SVGID_1_">
		<use xlink:href="#SVGID_6_"  style="overflow:visible;"/>
	</clipPath>
	<g class="st0">
		
			<linearGradient id="SVGID_2_" gradientUnits="userSpaceOnUse" x1="8.7966" y1="9.9101" x2="11.9145" y2="5.9194" gradientTransform="matrix(1 0 0 -1 0 16)">
			<stop  offset="0" style="stop-color:#3B009B"/>
			<stop  offset="1" style="stop-color:#390086"/>
		</linearGradient>
		<path class="st1" d="M6.6,4.1H13v6.6H6.6V4.1z"/>
		
			<linearGradient id="SVGID_3_" gradientUnits="userSpaceOnUse" x1="4.0003" y1="7.0434" x2="7.315" y2="2.8007" gradientTransform="matrix(1 0 0 -1 0 16)">
			<stop  offset="0" style="stop-color:#340084"/>
			<stop  offset="1" style="stop-color:#290064"/>
		</linearGradient>
		<path class="st2" d="M13,10.9L4.7,6.1H0.5v8H13V10.9z"/>
		
			<linearGradient id="SVGID_4_" gradientUnits="userSpaceOnUse" x1="4.1403" y1="13.5632" x2="7.5329" y2="9.2209" gradientTransform="matrix(1 0 0 -1 0 16)">
			<stop  offset="0" style="stop-color:#A47EDE"/>
			<stop  offset="1" style="stop-color:#9866D3"/>
		</linearGradient>
		<path class="st3" d="M0.5,10.9L13,3.6V0.7H0.5V10.9z"/>
	</g>
</g>
<path class="st4" d="M3,7.3c0-3.6,4.8-5.1,6.8-1.8L8.3,6.4c-1-1.6-3.3-1-3.4,0.9c0,1.8,2.4,2.6,3.4,0.9l1.6,0.9
	C8.1,12.3,3.1,11.1,3,7.3L3,7.3z M9.1,6.2h0.3l-0.2,2H8.9L9.1,6.2z M9.7,6.2H10l-0.2,2H9.5L9.7,6.2z M8.7,6.7h1.5V7H8.7V6.7z
	 M8.7,7.4h1.5v0.3H8.7V7.4z"/>
<g id="g5193" transform="translate(4.988 -113.385)">
	<path id="path5113" class="st5" d="M13.1,126.3l-1.1-11.8l11.6,0l-1.1,11.8l-4.7,1.3L13.1,126.3z M21.7,125.7l0.9-10.1h-4.7l0,11.2
		L21.7,125.7z M17.4,117h-1.2l0,6.1l-2.2-0.6l0,1.4l3.4,0.9L17.4,117L17.4,117z"/>
	<path id="path5159" class="st6" d="M17,124.7c-0.1,0-0.9-0.2-1.6-0.4l-1.4-0.4v-0.7c0-0.7,0-0.7,0.1-0.7c0,0,0.5,0.1,1.1,0.3l1,0.3
		l0-3l0-3h1.1v3.8c0,3.1,0,3.8,0,3.8C17.3,124.8,17.2,124.7,17,124.7L17,124.7z"/>
	<path id="path5157" class="st7" d="M14,123.9l0-1.4c0,0,1.4,0.4,2.2,0.6l0-6.1h1.2v7.8L14,123.9L14,123.9z"/>
	<path id="path5117" class="st8" d="M17.9,115.6h4.7l-0.9,10.1l-3.8,1V115.6z M21.5,124l0.3-3.8l-2.3,0.3v-2l2.5,0L22,117l-3.7,0
		l0,5l2.2-0.4l0,1.1l-2.3,0.6l0,1.4L21.5,124L21.5,124z"/>
</g>
<path class="st9" d="M38.7,1.1c-3.5,0-6.3,2.8-6.3,6.3c0,2.8,1.8,5.1,4.3,6c0.3,0.1,0.4-0.1,0.4-0.3c0-0.1,0-0.5,0-1.1
	c-1.7,0.4-2.1-0.8-2.1-0.8c-0.3-0.7-0.7-0.9-0.7-0.9c-0.6-0.4,0-0.4,0-0.4c0.6,0,1,0.6,1,0.6c0.6,1,1.5,0.7,1.8,0.5
	c0.1-0.4,0.2-0.7,0.4-0.8c-1.4-0.2-2.9-0.7-2.9-3.1c0-0.7,0.2-1.2,0.6-1.7c-0.1-0.2-0.3-0.8,0.1-1.7c0,0,0.5-0.2,1.7,0.6
	c0.5-0.1,1-0.2,1.6-0.2c0.5,0,1.1,0.1,1.6,0.2C41.5,3.6,42,3.7,42,3.7c0.3,0.9,0.1,1.5,0.1,1.7c0.4,0.4,0.6,1,0.6,1.7
	c0,2.4-1.5,2.9-2.9,3.1c0.2,0.2,0.4,0.6,0.4,1.2c0,0.8,0,1.5,0,1.7c0,0.2,0.1,0.4,0.4,0.3c2.5-0.8,4.3-3.2,4.3-6
	C45,4,42.2,1.1,38.7,1.1z"/>
</svg>
